<svg xmlns="http://www.w3.org/2000/svg" width="1232" height="462" viewBox="0 0 1232 462" version="1.1"><path d="M 355 100.428 C 348.428 102.252, 344.708 104.430, 341.050 108.596 C 336.392 113.901, 334 120.145, 334 127 C 334 137.223, 339.077 145.709, 348.388 151.049 C 352.730 153.540, 354.580 153.983, 360.667 153.991 C 374.170 154.008, 383.652 147.056, 387.522 134.299 C 389.367 128.218, 389.360 126.046, 387.472 119.551 C 384.724 110.099, 376.137 102.267, 366.180 100.132 C 360.101 98.828, 360.832 98.809, 355 100.428 M 904.313 102.583 C 895.048 107.067, 850.868 149.381, 846.545 157.911 C 844.034 162.866, 844 163.247, 844 186.308 C 844 211.126, 844.663 215.910, 848.938 221.913 L 851.115 224.970 847.557 231.331 L 844 237.692 844 261.324 L 844 284.955 847 290.500 C 850.502 296.973, 850.629 298.332, 848.169 303.015 C 844.375 310.236, 843.875 314.697, 844.193 338.500 C 844.482 360.147, 844.635 361.775, 846.800 366.169 C 849.471 371.591, 855.202 377.466, 860.991 380.718 L 865.054 383 1007.277 382.991 L 1149.500 382.981 1154.500 380.087 C 1160.888 376.389, 1165.195 371.835, 1168.431 365.355 C 1170.950 360.310, 1171 359.791, 1170.994 338.855 C 1170.987 313.867, 1170.144 307.189, 1166.370 302.241 L 1163.672 298.703 1167.080 292.601 L 1170.488 286.500 1170.823 262.770 L 1171.158 239.040 1167.728 232.183 L 1164.298 225.327 1167.106 219.913 C 1171.336 211.760, 1172.445 200.540, 1171.129 179.214 C 1169.645 155.171, 1171.271 157.944, 1141.937 129.447 C 1124.664 112.668, 1116.685 105.833, 1110.601 102.602 L 1105.702 100 1007.601 100.037 L 909.500 100.073 904.313 102.583 M 303 125.154 C 266.571 128.479, 237.801 134.300, 211.500 143.667 C 189.056 151.661, 167.518 163.573, 153.149 175.940 C 146.157 181.959, 135.437 193.891, 134.229 197 C 133.908 197.825, 132.597 200.184, 131.316 202.242 C 122.508 216.383, 121.625 238.359, 129.257 253.465 C 138.972 272.694, 164.540 289.311, 197 297.490 C 200.575 298.391, 205.075 299.525, 207 300.009 C 237.387 307.656, 302.278 308.441, 331.500 301.514 C 335.350 300.601, 340.075 299.505, 342 299.077 C 347.486 297.859, 360.131 292.658, 367.144 288.736 C 392.903 274.331, 401.862 246.219, 386.438 228.199 C 382.405 223.486, 371.816 217.841, 362.500 215.436 C 353.154 213.023, 337.768 212.031, 324.500 212.986 C 304.396 214.433, 291.208 219.027, 283.254 227.351 C 279.331 231.457, 276 238.193, 276 242.020 C 276 244.748, 279.496 248, 282.427 248 C 285.058 248, 289 243.843, 289 241.068 C 289 238.856, 295.620 232.620, 300 230.706 C 310.440 226.143, 313.985 225.597, 333.500 225.548 C 354.232 225.496, 360.080 226.521, 370.500 232.036 C 377.774 235.886, 380.925 240.893, 380.967 248.667 C 381.069 267.675, 362.831 281.967, 329 289.390 C 313.464 292.799, 304.256 293.500, 275 293.500 C 244.539 293.500, 233.614 292.653, 214.500 288.808 C 198.332 285.556, 197.971 285.462, 186.854 281.630 C 162.542 273.249, 147.615 262.181, 140.313 247.120 C 137.040 240.369, 136.729 238.962, 136.662 230.620 C 136.575 219.735, 138.435 213.888, 145.707 202.186 C 149.771 195.645, 170.708 176.569, 177 173.673 C 177.825 173.293, 180.075 172.031, 182 170.868 C 190.459 165.756, 200.019 161.355, 216.500 154.988 C 219.577 153.799, 234.796 149.321, 241.500 147.631 C 260.474 142.850, 278.335 139.994, 304.359 137.583 C 321.279 136.015, 324 135.022, 324 130.418 C 324 127.334, 319.497 123.965, 315.615 124.144 C 313.902 124.223, 308.225 124.677, 303 125.154 M 141.635 140.073 C 138.366 142.644, 138.003 148.547, 140.893 152.116 C 143.570 155.422, 150.430 155.422, 153.107 152.116 C 159.501 144.220, 149.590 133.815, 141.635 140.073 M 314.365 153.131 C 311.167 154.737, 309.646 158.301, 310.414 162.391 C 312.266 172.263, 326.400 170.547, 326.400 160.450 C 326.400 154.520, 319.705 150.448, 314.365 153.131 M 409.430 153.943 C 406.944 154.975, 403.986 159.237, 404.035 161.715 C 404.096 164.755, 406.591 168.232, 409.612 169.486 C 417.560 172.787, 424.487 163.014, 418.750 156.593 C 416.197 153.736, 412.477 152.678, 409.430 153.943 M 560.775 154.559 C 557.427 156.376, 556 158.899, 556 163 C 556 167.184, 557.457 169.668, 560.980 171.490 C 565.329 173.738, 568.593 173.335, 572.211 170.102 C 574.895 167.704, 575.455 166.480, 575.455 163 C 575.455 159.520, 574.895 158.296, 572.211 155.898 C 568.601 152.672, 565.024 152.253, 560.775 154.559 M 620.775 154.559 C 617.427 156.376, 616 158.899, 616 163 C 616 167.184, 617.457 169.668, 620.980 171.490 C 625.329 173.738, 628.593 173.335, 632.211 170.102 C 634.895 167.704, 635.455 166.480, 635.455 163 C 635.455 159.520, 634.895 158.296, 632.211 155.898 C 628.601 152.672, 625.024 152.253, 620.775 154.559 M 680.775 154.559 C 677.427 156.376, 676 158.899, 676 163 C 676 167.184, 677.457 169.668, 680.980 171.490 C 685.329 173.738, 688.593 173.335, 692.211 170.102 C 694.895 167.704, 695.455 166.480, 695.455 163 C 695.455 159.520, 694.895 158.296, 692.211 155.898 C 688.601 152.672, 685.024 152.253, 680.775 154.559 M 740.775 154.559 C 737.427 156.376, 736 158.899, 736 163 C 736 167.184, 737.457 169.668, 740.980 171.490 C 745.636 173.897, 748.820 173.380, 752.600 169.600 C 755.050 167.150, 756 165.306, 756 163 C 756 160.694, 755.050 158.850, 752.600 156.400 C 748.828 152.628, 745.335 152.084, 740.775 154.559 M 801.500 154.161 C 792.086 159.338, 795.737 173, 806.534 173 C 810.438 173, 816 167.124, 816 163 C 816 160.694, 815.050 158.850, 812.600 156.400 C 809.014 152.814, 805.308 152.067, 801.500 154.161 M 256.923 160.923 C 253.088 164.758, 253.126 168.280, 257.046 172.200 C 259.678 174.832, 260.594 175.165, 263.772 174.650 C 270.943 173.486, 273.413 165.686, 268.195 160.687 C 264.462 157.111, 260.656 157.190, 256.923 160.923 M 869.838 161.133 C 864.941 162.927, 863.678 167.674, 863.624 184.497 C 863.598 192.748, 863.930 202.099, 864.363 205.276 C 865.750 215.453, 850.754 214.458, 1007.856 214.793 L 1145.300 215.086 1148.150 212.356 L 1151 209.626 1151 187.500 L 1151 165.374 1148.195 162.687 L 1145.391 160 1008.945 160.079 C 923.013 160.129, 871.515 160.519, 869.838 161.133 M 458.500 162.846 C 453.630 165.136, 450.667 169.924, 450.667 175.500 C 450.667 183.389, 456.208 189, 464 189 C 471.881 189, 477.333 183.387, 477.333 175.275 C 477.333 170.667, 475.317 167.056, 470.938 163.823 C 467.180 161.049, 463.017 160.721, 458.500 162.846 M 215 170.619 C 210.521 173.425, 208.714 176.840, 208.714 182.500 C 208.714 188.315, 210.565 191.640, 215.322 194.370 C 219.023 196.494, 225.432 196.448, 229.117 194.272 C 233.047 191.950, 236.427 184.887, 235.597 180.734 C 234.776 176.632, 231.158 171.393, 228.221 170.055 C 224.844 168.516, 217.883 168.813, 215 170.619 M 92.351 175.494 C 90.538 176.257, 88.805 178.057, 87.990 180.024 C 86.788 182.925, 86.852 183.688, 88.569 186.894 C 90.308 190.142, 90.960 190.530, 95.138 190.800 C 99.164 191.061, 100.055 190.746, 101.888 188.415 C 107.403 181.404, 100.509 172.064, 92.351 175.494 M 895.500 177.655 C 894.400 177.888, 892.458 178.301, 891.184 178.575 C 888.302 179.193, 885.582 185.182, 886.499 188.892 C 886.853 190.326, 888.320 192.738, 889.758 194.250 L 892.374 197 928.437 196.994 C 950.664 196.991, 965.959 196.584, 968.302 195.933 C 972.318 194.818, 975.989 190.307, 975.996 186.478 C 975.998 185.366, 974.617 182.778, 972.927 180.728 L 969.854 177 933.677 177.116 C 913.780 177.180, 896.600 177.422, 895.500 177.655 M 1111 179.294 C 1102.444 183.622, 1106.156 197.054, 1115.885 196.968 C 1120.166 196.931, 1122.110 195.628, 1124.346 191.300 C 1126.703 186.739, 1126.438 185.238, 1122.600 181.400 C 1118.914 177.714, 1115.389 177.074, 1111 179.294 M 310 183.578 C 280.538 186.804, 263.233 191.250, 246.513 199.890 C 237.200 204.702, 225.341 216.349, 221.454 224.500 C 218.866 229.929, 218.594 231.499, 218.604 241 C 218.617 253.330, 219.868 256.920, 226.439 263.492 C 231.351 268.404, 238.432 271.970, 248.590 274.648 C 257.444 276.982, 292.011 277.297, 301.500 275.130 C 321.909 270.468, 333.275 261.921, 334.664 250.188 C 335.158 246.016, 334.919 244.919, 333.125 243.125 C 329.363 239.363, 324.985 241.177, 323.504 247.112 C 322.538 250.985, 317.316 256.826, 313.156 258.688 C 305.070 262.306, 301.976 263.074, 289.500 264.564 C 266.374 267.326, 243.044 263.138, 235.298 254.834 C 227.616 246.598, 228.559 233.914, 237.717 222.321 C 241.331 217.746, 251.919 210.405, 259 207.565 C 271.518 202.545, 275.159 201.562, 294.500 197.979 C 310.907 194.940, 362.423 194.944, 382 197.986 C 423.656 204.458, 448.880 214.825, 463.856 231.628 C 473.054 241.948, 477.115 254.664, 474.912 266.250 C 467.454 305.484, 411.942 338.236, 334 349.387 C 319.160 351.510, 304.930 352.998, 299.308 353.014 C 292.394 353.033, 290.110 353.887, 288.467 357.064 C 286.752 360.380, 287.297 362.309, 290.549 364.440 C 293.373 366.290, 295.335 366.349, 308.500 364.977 C 334.093 362.309, 351.154 359.737, 364.500 356.534 C 368.350 355.610, 373.075 354.511, 375 354.092 C 379.642 353.081, 392.493 349.193, 397.500 347.285 C 415.074 340.587, 424.172 336.462, 436 329.825 C 449.629 322.178, 470.364 303.962, 476.211 294.500 C 481.160 286.489, 483.654 281.387, 485.251 276 C 494.080 246.221, 478.433 218.907, 443 202.245 C 424.877 193.722, 408.599 189.420, 377.500 184.933 C 369.861 183.831, 317.325 182.777, 310 183.578 M 504.765 190.654 C 499.678 193.334, 496.620 198.589, 496.200 205.370 C 495.854 210.964, 496.097 211.879, 498.972 215.827 C 502.248 220.324, 508.515 223.956, 513 223.956 C 517.187 223.956, 523.571 220.429, 526.616 216.433 C 529.128 213.137, 529.500 211.790, 529.497 205.993 C 529.495 200.242, 529.113 198.837, 526.688 195.657 C 525.144 193.633, 522.278 191.307, 520.318 190.488 C 515.920 188.651, 508.414 188.730, 504.765 190.654 M 169 208.166 C 163.796 211.176, 161.331 213.765, 159.050 218.616 C 154.283 228.759, 157.787 240.633, 167.357 246.764 C 170.883 249.023, 172.618 249.422, 179.011 249.446 C 185.775 249.471, 186.936 249.177, 190.688 246.487 C 194.920 243.453, 197.558 239.937, 199.674 234.511 C 203.375 225.020, 198.190 213.199, 188.061 208.031 C 182.741 205.317, 173.816 205.381, 169 208.166 M 269.589 211.077 C 266.700 214.510, 266.543 215.390, 268.050 219.713 C 269.988 225.273, 277.483 226.740, 281.548 222.354 C 284.944 218.689, 284.807 214.147, 281.195 210.687 C 277.269 206.925, 272.960 207.070, 269.589 211.077 M 64.500 218.637 C 58.877 219.967, 54.293 224.840, 49.826 234.236 C 48.742 236.516, 48.768 240.739, 49.871 241.420 C 50.350 241.716, 51.011 243.304, 51.340 244.948 C 52.970 253.100, 65.892 259.796, 74.603 257.002 C 95.620 250.262, 92.942 220.210, 71.174 218.526 C 68.603 218.327, 65.600 218.377, 64.500 218.637 M 411 218.709 C 407.501 219.996, 406 222.359, 406 226.582 C 406 230.007, 406.523 231.266, 408.635 232.927 C 415.594 238.401, 423.799 232.300, 421.415 223.424 C 420.452 219.838, 414.840 217.298, 411 218.709 M 251 228.704 C 250.175 229.004, 248.262 230.403, 246.750 231.812 C 244.512 233.897, 244.006 235.223, 244.033 238.937 C 244.071 244.108, 246.198 247.364, 250.639 249.053 C 262.447 253.542, 270.578 236.591, 259.775 230.004 C 256.538 228.031, 253.917 227.642, 251 228.704 M 531.923 238.923 C 528.155 242.691, 527.844 248.599, 531.250 251.701 C 535.739 255.789, 537.751 256.288, 541.774 254.310 C 545.843 252.309, 550.534 245.026, 548.250 244.255 C 547.563 244.023, 547 243.174, 547 242.369 C 547 241.563, 545.809 239.801, 544.354 238.452 C 540.588 234.962, 535.699 235.147, 531.923 238.923 M 869 237.306 C 865.768 238.409, 865.402 238.959, 864.222 244.500 C 862.683 251.726, 863.176 276.951, 864.949 281.670 C 865.604 283.413, 866.896 285.213, 867.820 285.670 C 870.111 286.802, 1122.655 287.290, 1136.795 286.190 C 1143.090 285.700, 1148.623 284.778, 1149.295 284.108 C 1150.136 283.268, 1150.593 276.681, 1150.808 262.318 L 1151.117 241.731 1148.371 238.866 L 1145.626 236 1009.063 236.056 C 906.006 236.099, 871.641 236.406, 869 237.306 M 353.635 244.073 C 348.085 248.438, 351.679 259, 358.715 259 C 360.334 259, 362.679 257.925, 364.260 256.460 C 372.140 249.153, 362.082 237.428, 353.635 244.073 M 429.308 248.655 C 426.131 249.335, 421.125 254.851, 419.863 259.064 C 418.947 262.120, 419.099 263.436, 420.819 267.323 C 423.297 272.925, 427.823 275.991, 433.621 275.996 C 436.969 275.999, 438.536 275.296, 441.967 272.250 C 445.486 269.125, 446.277 267.736, 446.707 263.916 C 447.805 254.161, 439.132 246.553, 429.308 248.655 M 894.373 252.714 C 889.550 253.322, 886.480 257.245, 886.598 262.651 C 886.665 265.764, 887.330 267.774, 888.767 269.211 C 890.775 271.219, 892.057 271.299, 930.233 271.779 L 969.627 272.276 972.814 268.410 C 976.597 263.820, 976.782 261.458, 973.715 256.898 C 971.721 253.932, 970.735 253.417, 965.965 252.849 C 960.173 252.159, 899.682 252.045, 894.373 252.714 M 1109.823 255.062 C 1105.057 258.620, 1104.924 267.593, 1109.591 270.652 C 1110.921 271.523, 1113.919 272.209, 1116.254 272.177 C 1119.550 272.132, 1121.004 271.534, 1122.750 269.504 C 1130.192 260.853, 1118.925 248.266, 1109.823 255.062 M 193.270 257.772 C 189.065 261.029, 189.399 268.252, 193.913 271.718 C 198.195 275.006, 205.459 271.331, 206.618 265.290 C 207.133 262.606, 206.736 261.582, 204.194 259.040 C 200.713 255.559, 196.724 255.096, 193.270 257.772 M 507.280 275.425 C 503.398 277.575, 500.707 281.970, 500.281 286.857 C 499.728 293.208, 502.373 297.798, 508.362 300.882 C 512.596 303.062, 513.361 303.159, 517.408 302.026 C 522.539 300.589, 526.222 297.049, 528.076 291.770 C 529.235 288.473, 529.159 287.491, 527.420 283.294 C 524.845 277.081, 520.332 273.965, 514.102 274.098 C 511.571 274.152, 508.501 274.749, 507.280 275.425 M 389.655 298.098 C 385.889 299.130, 384.071 301.710, 384.032 306.076 C 383.966 313.451, 393.447 317.061, 397.927 311.365 C 403.163 304.709, 397.671 295.901, 389.655 298.098 M 883.784 308.931 C 871.711 309.368, 867.726 309.848, 866.588 311 C 863.543 314.084, 862.062 337.726, 864.050 351.500 C 865.829 363.826, 850.069 362.451, 993.777 362.823 C 1130.398 363.176, 1146.121 362.879, 1149.109 359.891 C 1150.848 358.152, 1151 356.244, 1151 336.111 C 1151 309.699, 1151.141 310.061, 1140.392 308.868 C 1132.584 308.001, 907.926 308.056, 883.784 308.931 M 560.775 310.559 C 557.427 312.376, 556 314.899, 556 319 C 556 323.184, 557.457 325.668, 560.980 327.490 C 565.329 329.738, 568.593 329.335, 572.211 326.102 C 574.895 323.704, 575.455 322.480, 575.455 319 C 575.455 315.520, 574.895 314.296, 572.211 311.898 C 568.601 308.672, 565.024 308.253, 560.775 310.559 M 620.775 310.559 C 617.427 312.376, 616 314.899, 616 319 C 616 323.184, 617.457 325.668, 620.980 327.490 C 625.329 329.738, 628.593 329.335, 632.211 326.102 C 634.895 323.704, 635.455 322.480, 635.455 319 C 635.455 315.520, 634.895 314.296, 632.211 311.898 C 628.601 308.672, 625.024 308.253, 620.775 310.559 M 680.775 310.559 C 677.427 312.376, 676 314.899, 676 319 C 676 323.184, 677.457 325.668, 680.980 327.490 C 685.329 329.738, 688.593 329.335, 692.211 326.102 C 694.895 323.704, 695.455 322.480, 695.455 319 C 695.455 315.520, 694.895 314.296, 692.211 311.898 C 688.601 308.672, 685.024 308.253, 680.775 310.559 M 740.775 310.559 C 737.427 312.376, 736 314.899, 736 319 C 736 323.184, 737.457 325.668, 740.980 327.490 C 745.636 329.897, 748.820 329.380, 752.600 325.600 C 755.050 323.150, 756 321.306, 756 319 C 756 316.694, 755.050 314.850, 752.600 312.400 C 748.828 308.628, 745.335 308.084, 740.775 310.559 M 801.500 310.161 C 792.086 315.338, 795.737 329, 806.534 329 C 810.438 329, 816 323.124, 816 319 C 816 316.694, 815.050 314.850, 812.600 312.400 C 809.014 308.814, 805.308 308.067, 801.500 310.161 M 334.500 312.412 C 329.491 314.638, 326.764 318.401, 326.245 323.802 C 325.408 332.510, 331.068 338.988, 339.518 338.996 C 354.220 339.010, 357.963 318.190, 344.285 312.475 C 340.011 310.689, 338.400 310.678, 334.500 312.412 M 133.849 320.520 C 132.391 321.312, 130.206 324.009, 128.994 326.513 C 125.980 332.739, 126.878 337.243, 132.133 342.241 C 135.466 345.412, 136.769 346, 140.461 346 C 148.957 346, 154.286 340.818, 154.286 332.555 C 154.286 326.630, 152.197 322.671, 147.901 320.449 C 144.350 318.612, 137.295 318.648, 133.849 320.520 M 899.030 325.748 C 889.477 326.132, 887.565 327.177, 886.553 332.568 C 885.824 336.454, 888.094 342.337, 890.827 343.647 C 891.747 344.088, 909.757 344.602, 930.850 344.789 C 973.194 345.165, 971.169 345.442, 974.602 338.802 C 976.772 334.606, 976.287 332.087, 972.600 328.400 L 969.200 325 938.350 325.204 C 921.383 325.315, 903.689 325.560, 899.030 325.748 M 1109.494 328.252 C 1107.765 329.739, 1106.692 331.877, 1106.333 334.550 C 1105.879 337.940, 1106.228 339.118, 1108.484 341.799 C 1110.747 344.488, 1111.867 345, 1115.485 345 C 1119.164 345, 1120.246 344.484, 1122.896 341.465 C 1126.963 336.834, 1126.885 333.685, 1122.600 329.400 C 1118.421 325.221, 1113.517 324.791, 1109.494 328.252 M 237 329.114 C 229.267 332.166, 223.064 339.179, 220.435 347.843 C 218.629 353.794, 218.647 355.979, 220.558 362.553 C 222.381 368.822, 229.215 377.050, 234.838 379.745 C 237.443 380.994, 240.953 381.500, 247 381.500 C 254.457 381.500, 256.070 381.165, 260.145 378.770 C 269.008 373.559, 274 364.995, 274 355 C 274 344.777, 268.923 336.291, 259.612 330.951 C 255.167 328.401, 253.522 328.026, 247 328.073 C 242.875 328.102, 238.375 328.571, 237 329.114 M 189.923 348.923 C 188.184 350.662, 187 352.905, 187 354.458 C 187 360.660, 193.406 365.059, 198.550 362.390 C 204.787 359.154, 205.727 353.881, 200.923 349.077 C 197.023 345.177, 193.715 345.131, 189.923 348.923" stroke="none" fill="#0e0e0e" fill-rule="evenodd"/><path d="M 0 231.001 L 0 462.002 616.250 461.751 L 1232.500 461.500 1232.752 230.750 L 1233.004 0 616.502 0 L 0 0 0 231.001 M 0.492 231.500 C 0.492 358.550, 0.608 410.674, 0.750 347.330 C 0.892 283.987, 0.892 180.037, 0.750 116.330 C 0.608 52.624, 0.492 104.450, 0.492 231.500 M 355 100.428 C 348.428 102.252, 344.708 104.430, 341.050 108.596 C 336.392 113.901, 334 120.145, 334 127 C 334 137.223, 339.077 145.709, 348.388 151.049 C 352.730 153.540, 354.580 153.983, 360.667 153.991 C 374.170 154.008, 383.652 147.056, 387.522 134.299 C 389.367 128.218, 389.360 126.046, 387.472 119.551 C 384.724 110.099, 376.137 102.267, 366.180 100.132 C 360.101 98.828, 360.832 98.809, 355 100.428 M 904.313 102.583 C 895.048 107.067, 850.868 149.381, 846.545 157.911 C 844.034 162.866, 844 163.247, 844 186.308 C 844 211.126, 844.663 215.910, 848.938 221.913 L 851.115 224.970 847.557 231.331 L 844 237.692 844 261.324 L 844 284.955 847 290.500 C 850.502 296.973, 850.629 298.332, 848.169 303.015 C 844.375 310.236, 843.875 314.697, 844.193 338.500 C 844.482 360.147, 844.635 361.775, 846.800 366.169 C 849.471 371.591, 855.202 377.466, 860.991 380.718 L 865.054 383 1007.277 382.991 L 1149.500 382.981 1154.500 380.087 C 1160.888 376.389, 1165.195 371.835, 1168.431 365.355 C 1170.950 360.310, 1171 359.791, 1170.994 338.855 C 1170.987 313.867, 1170.144 307.189, 1166.370 302.241 L 1163.672 298.703 1167.080 292.601 L 1170.488 286.500 1170.823 262.770 L 1171.158 239.040 1167.728 232.183 L 1164.298 225.327 1167.106 219.913 C 1171.336 211.760, 1172.445 200.540, 1171.129 179.214 C 1169.645 155.171, 1171.271 157.944, 1141.937 129.447 C 1124.664 112.668, 1116.685 105.833, 1110.601 102.602 L 1105.702 100 1007.601 100.037 L 909.500 100.073 904.313 102.583 M 303 125.154 C 266.571 128.479, 237.801 134.300, 211.500 143.667 C 189.056 151.661, 167.518 163.573, 153.149 175.940 C 146.157 181.959, 135.437 193.891, 134.229 197 C 133.908 197.825, 132.597 200.184, 131.316 202.242 C 122.508 216.383, 121.625 238.359, 129.257 253.465 C 138.972 272.694, 164.540 289.311, 197 297.490 C 200.575 298.391, 205.075 299.525, 207 300.009 C 237.387 307.656, 302.278 308.441, 331.500 301.514 C 335.350 300.601, 340.075 299.505, 342 299.077 C 347.486 297.859, 360.131 292.658, 367.144 288.736 C 392.903 274.331, 401.862 246.219, 386.438 228.199 C 382.405 223.486, 371.816 217.841, 362.500 215.436 C 353.154 213.023, 337.768 212.031, 324.500 212.986 C 304.396 214.433, 291.208 219.027, 283.254 227.351 C 279.331 231.457, 276 238.193, 276 242.020 C 276 244.748, 279.496 248, 282.427 248 C 285.058 248, 289 243.843, 289 241.068 C 289 238.856, 295.620 232.620, 300 230.706 C 310.440 226.143, 313.985 225.597, 333.500 225.548 C 354.232 225.496, 360.080 226.521, 370.500 232.036 C 377.774 235.886, 380.925 240.893, 380.967 248.667 C 381.069 267.675, 362.831 281.967, 329 289.390 C 313.464 292.799, 304.256 293.500, 275 293.500 C 244.539 293.500, 233.614 292.653, 214.500 288.808 C 198.332 285.556, 197.971 285.462, 186.854 281.630 C 162.542 273.249, 147.615 262.181, 140.313 247.120 C 137.040 240.369, 136.729 238.962, 136.662 230.620 C 136.575 219.735, 138.435 213.888, 145.707 202.186 C 149.771 195.645, 170.708 176.569, 177 173.673 C 177.825 173.293, 180.075 172.031, 182 170.868 C 190.459 165.756, 200.019 161.355, 216.500 154.988 C 219.577 153.799, 234.796 149.321, 241.500 147.631 C 260.474 142.850, 278.335 139.994, 304.359 137.583 C 321.279 136.015, 324 135.022, 324 130.418 C 324 127.334, 319.497 123.965, 315.615 124.144 C 313.902 124.223, 308.225 124.677, 303 125.154 M 141.635 140.073 C 138.366 142.644, 138.003 148.547, 140.893 152.116 C 143.570 155.422, 150.430 155.422, 153.107 152.116 C 159.501 144.220, 149.590 133.815, 141.635 140.073 M 314.365 153.131 C 311.167 154.737, 309.646 158.301, 310.414 162.391 C 312.266 172.263, 326.400 170.547, 326.400 160.450 C 326.400 154.520, 319.705 150.448, 314.365 153.131 M 409.430 153.943 C 406.944 154.975, 403.986 159.237, 404.035 161.715 C 404.096 164.755, 406.591 168.232, 409.612 169.486 C 417.560 172.787, 424.487 163.014, 418.750 156.593 C 416.197 153.736, 412.477 152.678, 409.430 153.943 M 560.775 154.559 C 557.427 156.376, 556 158.899, 556 163 C 556 167.184, 557.457 169.668, 560.980 171.490 C 565.329 173.738, 568.593 173.335, 572.211 170.102 C 574.895 167.704, 575.455 166.480, 575.455 163 C 575.455 159.520, 574.895 158.296, 572.211 155.898 C 568.601 152.672, 565.024 152.253, 560.775 154.559 M 620.775 154.559 C 617.427 156.376, 616 158.899, 616 163 C 616 167.184, 617.457 169.668, 620.980 171.490 C 625.329 173.738, 628.593 173.335, 632.211 170.102 C 634.895 167.704, 635.455 166.480, 635.455 163 C 635.455 159.520, 634.895 158.296, 632.211 155.898 C 628.601 152.672, 625.024 152.253, 620.775 154.559 M 680.775 154.559 C 677.427 156.376, 676 158.899, 676 163 C 676 167.184, 677.457 169.668, 680.980 171.490 C 685.329 173.738, 688.593 173.335, 692.211 170.102 C 694.895 167.704, 695.455 166.480, 695.455 163 C 695.455 159.520, 694.895 158.296, 692.211 155.898 C 688.601 152.672, 685.024 152.253, 680.775 154.559 M 740.775 154.559 C 737.427 156.376, 736 158.899, 736 163 C 736 167.184, 737.457 169.668, 740.980 171.490 C 745.636 173.897, 748.820 173.380, 752.600 169.600 C 755.050 167.150, 756 165.306, 756 163 C 756 160.694, 755.050 158.850, 752.600 156.400 C 748.828 152.628, 745.335 152.084, 740.775 154.559 M 801.500 154.161 C 792.086 159.338, 795.737 173, 806.534 173 C 810.438 173, 816 167.124, 816 163 C 816 160.694, 815.050 158.850, 812.600 156.400 C 809.014 152.814, 805.308 152.067, 801.500 154.161 M 256.923 160.923 C 253.088 164.758, 253.126 168.280, 257.046 172.200 C 259.678 174.832, 260.594 175.165, 263.772 174.650 C 270.943 173.486, 273.413 165.686, 268.195 160.687 C 264.462 157.111, 260.656 157.190, 256.923 160.923 M 869.838 161.133 C 864.941 162.927, 863.678 167.674, 863.624 184.497 C 863.598 192.748, 863.930 202.099, 864.363 205.276 C 865.750 215.453, 850.754 214.458, 1007.856 214.793 L 1145.300 215.086 1148.150 212.356 L 1151 209.626 1151 187.500 L 1151 165.374 1148.195 162.687 L 1145.391 160 1008.945 160.079 C 923.013 160.129, 871.515 160.519, 869.838 161.133 M 458.500 162.846 C 453.630 165.136, 450.667 169.924, 450.667 175.500 C 450.667 183.389, 456.208 189, 464 189 C 471.881 189, 477.333 183.387, 477.333 175.275 C 477.333 170.667, 475.317 167.056, 470.938 163.823 C 467.180 161.049, 463.017 160.721, 458.500 162.846 M 215 170.619 C 210.521 173.425, 208.714 176.840, 208.714 182.500 C 208.714 188.315, 210.565 191.640, 215.322 194.370 C 219.023 196.494, 225.432 196.448, 229.117 194.272 C 233.047 191.950, 236.427 184.887, 235.597 180.734 C 234.776 176.632, 231.158 171.393, 228.221 170.055 C 224.844 168.516, 217.883 168.813, 215 170.619 M 92.351 175.494 C 90.538 176.257, 88.805 178.057, 87.990 180.024 C 86.788 182.925, 86.852 183.688, 88.569 186.894 C 90.308 190.142, 90.960 190.530, 95.138 190.800 C 99.164 191.061, 100.055 190.746, 101.888 188.415 C 107.403 181.404, 100.509 172.064, 92.351 175.494 M 895.500 177.655 C 894.400 177.888, 892.458 178.301, 891.184 178.575 C 888.302 179.193, 885.582 185.182, 886.499 188.892 C 886.853 190.326, 888.320 192.738, 889.758 194.250 L 892.374 197 928.437 196.994 C 950.664 196.991, 965.959 196.584, 968.302 195.933 C 972.318 194.818, 975.989 190.307, 975.996 186.478 C 975.998 185.366, 974.617 182.778, 972.927 180.728 L 969.854 177 933.677 177.116 C 913.780 177.180, 896.600 177.422, 895.500 177.655 M 1111 179.294 C 1102.444 183.622, 1106.156 197.054, 1115.885 196.968 C 1120.166 196.931, 1122.110 195.628, 1124.346 191.300 C 1126.703 186.739, 1126.438 185.238, 1122.600 181.400 C 1118.914 177.714, 1115.389 177.074, 1111 179.294 M 310 183.578 C 280.538 186.804, 263.233 191.250, 246.513 199.890 C 237.200 204.702, 225.341 216.349, 221.454 224.500 C 218.866 229.929, 218.594 231.499, 218.604 241 C 218.617 253.330, 219.868 256.920, 226.439 263.492 C 231.351 268.404, 238.432 271.970, 248.590 274.648 C 257.444 276.982, 292.011 277.297, 301.500 275.130 C 321.909 270.468, 333.275 261.921, 334.664 250.188 C 335.158 246.016, 334.919 244.919, 333.125 243.125 C 329.363 239.363, 324.985 241.177, 323.504 247.112 C 322.538 250.985, 317.316 256.826, 313.156 258.688 C 305.070 262.306, 301.976 263.074, 289.500 264.564 C 266.374 267.326, 243.044 263.138, 235.298 254.834 C 227.616 246.598, 228.559 233.914, 237.717 222.321 C 241.331 217.746, 251.919 210.405, 259 207.565 C 271.518 202.545, 275.159 201.562, 294.500 197.979 C 310.907 194.940, 362.423 194.944, 382 197.986 C 423.656 204.458, 448.880 214.825, 463.856 231.628 C 473.054 241.948, 477.115 254.664, 474.912 266.250 C 467.454 305.484, 411.942 338.236, 334 349.387 C 319.160 351.510, 304.930 352.998, 299.308 353.014 C 292.394 353.033, 290.110 353.887, 288.467 357.064 C 286.752 360.380, 287.297 362.309, 290.549 364.440 C 293.373 366.290, 295.335 366.349, 308.500 364.977 C 334.093 362.309, 351.154 359.737, 364.500 356.534 C 368.350 355.610, 373.075 354.511, 375 354.092 C 379.642 353.081, 392.493 349.193, 397.500 347.285 C 415.074 340.587, 424.172 336.462, 436 329.825 C 449.629 322.178, 470.364 303.962, 476.211 294.500 C 481.160 286.489, 483.654 281.387, 485.251 276 C 494.080 246.221, 478.433 218.907, 443 202.245 C 424.877 193.722, 408.599 189.420, 377.500 184.933 C 369.861 183.831, 317.325 182.777, 310 183.578 M 504.765 190.654 C 499.678 193.334, 496.620 198.589, 496.200 205.370 C 495.854 210.964, 496.097 211.879, 498.972 215.827 C 502.248 220.324, 508.515 223.956, 513 223.956 C 517.187 223.956, 523.571 220.429, 526.616 216.433 C 529.128 213.137, 529.500 211.790, 529.497 205.993 C 529.495 200.242, 529.113 198.837, 526.688 195.657 C 525.144 193.633, 522.278 191.307, 520.318 190.488 C 515.920 188.651, 508.414 188.730, 504.765 190.654 M 169 208.166 C 163.796 211.176, 161.331 213.765, 159.050 218.616 C 154.283 228.759, 157.787 240.633, 167.357 246.764 C 170.883 249.023, 172.618 249.422, 179.011 249.446 C 185.775 249.471, 186.936 249.177, 190.688 246.487 C 194.920 243.453, 197.558 239.937, 199.674 234.511 C 203.375 225.020, 198.190 213.199, 188.061 208.031 C 182.741 205.317, 173.816 205.381, 169 208.166 M 269.589 211.077 C 266.700 214.510, 266.543 215.390, 268.050 219.713 C 269.988 225.273, 277.483 226.740, 281.548 222.354 C 284.944 218.689, 284.807 214.147, 281.195 210.687 C 277.269 206.925, 272.960 207.070, 269.589 211.077 M 64.500 218.637 C 58.877 219.967, 54.293 224.840, 49.826 234.236 C 48.742 236.516, 48.768 240.739, 49.871 241.420 C 50.350 241.716, 51.011 243.304, 51.340 244.948 C 52.970 253.100, 65.892 259.796, 74.603 257.002 C 95.620 250.262, 92.942 220.210, 71.174 218.526 C 68.603 218.327, 65.600 218.377, 64.500 218.637 M 411 218.709 C 407.501 219.996, 406 222.359, 406 226.582 C 406 230.007, 406.523 231.266, 408.635 232.927 C 415.594 238.401, 423.799 232.300, 421.415 223.424 C 420.452 219.838, 414.840 217.298, 411 218.709 M 251 228.704 C 250.175 229.004, 248.262 230.403, 246.750 231.812 C 244.512 233.897, 244.006 235.223, 244.033 238.937 C 244.071 244.108, 246.198 247.364, 250.639 249.053 C 262.447 253.542, 270.578 236.591, 259.775 230.004 C 256.538 228.031, 253.917 227.642, 251 228.704 M 531.923 238.923 C 528.155 242.691, 527.844 248.599, 531.250 251.701 C 535.739 255.789, 537.751 256.288, 541.774 254.310 C 545.843 252.309, 550.534 245.026, 548.250 244.255 C 547.563 244.023, 547 243.174, 547 242.369 C 547 241.563, 545.809 239.801, 544.354 238.452 C 540.588 234.962, 535.699 235.147, 531.923 238.923 M 869 237.306 C 865.768 238.409, 865.402 238.959, 864.222 244.500 C 862.683 251.726, 863.176 276.951, 864.949 281.670 C 865.604 283.413, 866.896 285.213, 867.820 285.670 C 870.111 286.802, 1122.655 287.290, 1136.795 286.190 C 1143.090 285.700, 1148.623 284.778, 1149.295 284.108 C 1150.136 283.268, 1150.593 276.681, 1150.808 262.318 L 1151.117 241.731 1148.371 238.866 L 1145.626 236 1009.063 236.056 C 906.006 236.099, 871.641 236.406, 869 237.306 M 353.635 244.073 C 348.085 248.438, 351.679 259, 358.715 259 C 360.334 259, 362.679 257.925, 364.260 256.460 C 372.140 249.153, 362.082 237.428, 353.635 244.073 M 429.308 248.655 C 426.131 249.335, 421.125 254.851, 419.863 259.064 C 418.947 262.120, 419.099 263.436, 420.819 267.323 C 423.297 272.925, 427.823 275.991, 433.621 275.996 C 436.969 275.999, 438.536 275.296, 441.967 272.250 C 445.486 269.125, 446.277 267.736, 446.707 263.916 C 447.805 254.161, 439.132 246.553, 429.308 248.655 M 894.373 252.714 C 889.550 253.322, 886.480 257.245, 886.598 262.651 C 886.665 265.764, 887.330 267.774, 888.767 269.211 C 890.775 271.219, 892.057 271.299, 930.233 271.779 L 969.627 272.276 972.814 268.410 C 976.597 263.820, 976.782 261.458, 973.715 256.898 C 971.721 253.932, 970.735 253.417, 965.965 252.849 C 960.173 252.159, 899.682 252.045, 894.373 252.714 M 1109.823 255.062 C 1105.057 258.620, 1104.924 267.593, 1109.591 270.652 C 1110.921 271.523, 1113.919 272.209, 1116.254 272.177 C 1119.550 272.132, 1121.004 271.534, 1122.750 269.504 C 1130.192 260.853, 1118.925 248.266, 1109.823 255.062 M 193.270 257.772 C 189.065 261.029, 189.399 268.252, 193.913 271.718 C 198.195 275.006, 205.459 271.331, 206.618 265.290 C 207.133 262.606, 206.736 261.582, 204.194 259.040 C 200.713 255.559, 196.724 255.096, 193.270 257.772 M 507.280 275.425 C 503.398 277.575, 500.707 281.970, 500.281 286.857 C 499.728 293.208, 502.373 297.798, 508.362 300.882 C 512.596 303.062, 513.361 303.159, 517.408 302.026 C 522.539 300.589, 526.222 297.049, 528.076 291.770 C 529.235 288.473, 529.159 287.491, 527.420 283.294 C 524.845 277.081, 520.332 273.965, 514.102 274.098 C 511.571 274.152, 508.501 274.749, 507.280 275.425 M 389.655 298.098 C 385.889 299.130, 384.071 301.710, 384.032 306.076 C 383.966 313.451, 393.447 317.061, 397.927 311.365 C 403.163 304.709, 397.671 295.901, 389.655 298.098 M 883.784 308.931 C 871.711 309.368, 867.726 309.848, 866.588 311 C 863.543 314.084, 862.062 337.726, 864.050 351.500 C 865.829 363.826, 850.069 362.451, 993.777 362.823 C 1130.398 363.176, 1146.121 362.879, 1149.109 359.891 C 1150.848 358.152, 1151 356.244, 1151 336.111 C 1151 309.699, 1151.141 310.061, 1140.392 308.868 C 1132.584 308.001, 907.926 308.056, 883.784 308.931 M 560.775 310.559 C 557.427 312.376, 556 314.899, 556 319 C 556 323.184, 557.457 325.668, 560.980 327.490 C 565.329 329.738, 568.593 329.335, 572.211 326.102 C 574.895 323.704, 575.455 322.480, 575.455 319 C 575.455 315.520, 574.895 314.296, 572.211 311.898 C 568.601 308.672, 565.024 308.253, 560.775 310.559 M 620.775 310.559 C 617.427 312.376, 616 314.899, 616 319 C 616 323.184, 617.457 325.668, 620.980 327.490 C 625.329 329.738, 628.593 329.335, 632.211 326.102 C 634.895 323.704, 635.455 322.480, 635.455 319 C 635.455 315.520, 634.895 314.296, 632.211 311.898 C 628.601 308.672, 625.024 308.253, 620.775 310.559 M 680.775 310.559 C 677.427 312.376, 676 314.899, 676 319 C 676 323.184, 677.457 325.668, 680.980 327.490 C 685.329 329.738, 688.593 329.335, 692.211 326.102 C 694.895 323.704, 695.455 322.480, 695.455 319 C 695.455 315.520, 694.895 314.296, 692.211 311.898 C 688.601 308.672, 685.024 308.253, 680.775 310.559 M 740.775 310.559 C 737.427 312.376, 736 314.899, 736 319 C 736 323.184, 737.457 325.668, 740.980 327.490 C 745.636 329.897, 748.820 329.380, 752.600 325.600 C 755.050 323.150, 756 321.306, 756 319 C 756 316.694, 755.050 314.850, 752.600 312.400 C 748.828 308.628, 745.335 308.084, 740.775 310.559 M 801.500 310.161 C 792.086 315.338, 795.737 329, 806.534 329 C 810.438 329, 816 323.124, 816 319 C 816 316.694, 815.050 314.850, 812.600 312.400 C 809.014 308.814, 805.308 308.067, 801.500 310.161 M 334.500 312.412 C 329.491 314.638, 326.764 318.401, 326.245 323.802 C 325.408 332.510, 331.068 338.988, 339.518 338.996 C 354.220 339.010, 357.963 318.190, 344.285 312.475 C 340.011 310.689, 338.400 310.678, 334.500 312.412 M 133.849 320.520 C 132.391 321.312, 130.206 324.009, 128.994 326.513 C 125.980 332.739, 126.878 337.243, 132.133 342.241 C 135.466 345.412, 136.769 346, 140.461 346 C 148.957 346, 154.286 340.818, 154.286 332.555 C 154.286 326.630, 152.197 322.671, 147.901 320.449 C 144.350 318.612, 137.295 318.648, 133.849 320.520 M 899.030 325.748 C 889.477 326.132, 887.565 327.177, 886.553 332.568 C 885.824 336.454, 888.094 342.337, 890.827 343.647 C 891.747 344.088, 909.757 344.602, 930.850 344.789 C 973.194 345.165, 971.169 345.442, 974.602 338.802 C 976.772 334.606, 976.287 332.087, 972.600 328.400 L 969.200 325 938.350 325.204 C 921.383 325.315, 903.689 325.560, 899.030 325.748 M 1109.494 328.252 C 1107.765 329.739, 1106.692 331.877, 1106.333 334.550 C 1105.879 337.940, 1106.228 339.118, 1108.484 341.799 C 1110.747 344.488, 1111.867 345, 1115.485 345 C 1119.164 345, 1120.246 344.484, 1122.896 341.465 C 1126.963 336.834, 1126.885 333.685, 1122.600 329.400 C 1118.421 325.221, 1113.517 324.791, 1109.494 328.252 M 237 329.114 C 229.267 332.166, 223.064 339.179, 220.435 347.843 C 218.629 353.794, 218.647 355.979, 220.558 362.553 C 222.381 368.822, 229.215 377.050, 234.838 379.745 C 237.443 380.994, 240.953 381.500, 247 381.500 C 254.457 381.500, 256.070 381.165, 260.145 378.770 C 269.008 373.559, 274 364.995, 274 355 C 274 344.777, 268.923 336.291, 259.612 330.951 C 255.167 328.401, 253.522 328.026, 247 328.073 C 242.875 328.102, 238.375 328.571, 237 329.114 M 189.923 348.923 C 188.184 350.662, 187 352.905, 187 354.458 C 187 360.660, 193.406 365.059, 198.550 362.390 C 204.787 359.154, 205.727 353.881, 200.923 349.077 C 197.023 345.177, 193.715 345.131, 189.923 348.923" stroke="none" fill="#f9f9f9" fill-rule="evenodd"/></svg>